<?xml version="1.0" encoding="utf-8"?>
<!-- Generator: Adobe Illustrator 16.0.0, SVG Export Plug-In . SVG Version: 6.00 Build 0)  -->
<!DOCTYPE svg PUBLIC "-//W3C//DTD SVG 1.1//EN" "http://www.w3.org/Graphics/SVG/1.1/DTD/svg11.dtd">
<svg version="1.1" id="Layer_1" xmlns="http://www.w3.org/2000/svg" xmlns:xlink="http://www.w3.org/1999/xlink" x="0px" y="0px"
	 width="113px" height="23px" viewBox="0 0 113 23" enable-background="new 0 0 113 23" xml:space="preserve">
<path d="M39.343,5.964h4.692c0.453,0,0.901,0.057,1.343,0.17c0.442,0.102,0.833,0.278,1.173,0.527
	c0.352,0.238,0.635,0.55,0.85,0.935s0.323,0.85,0.323,1.394c0,0.68-0.193,1.241-0.578,1.683c-0.385,0.442-0.89,0.759-1.513,0.952
	v0.034c0.374,0.045,0.72,0.153,1.037,0.323c0.329,0.159,0.606,0.368,0.833,0.629c0.227,0.249,0.402,0.544,0.527,0.884
	c0.136,0.329,0.204,0.686,0.204,1.071c0,0.656-0.13,1.207-0.391,1.648c-0.26,0.431-0.606,0.782-1.037,1.055
	c-0.419,0.26-0.907,0.447-1.462,0.561C44.8,17.943,44.245,18,43.678,18h-4.335V5.964z M41.485,10.86h1.955
	c0.714,0,1.247-0.136,1.598-0.408c0.363-0.283,0.544-0.652,0.544-1.105c0-0.521-0.187-0.907-0.561-1.156
	C44.658,7.93,44.069,7.8,43.253,7.8h-1.768V10.86z M41.485,16.164h1.972c0.272,0,0.561-0.018,0.867-0.051
	c0.317-0.034,0.606-0.113,0.867-0.238s0.476-0.301,0.646-0.527c0.17-0.238,0.255-0.555,0.255-0.951c0-0.635-0.209-1.077-0.629-1.326
	c-0.408-0.25-1.048-0.375-1.921-0.375h-2.057V16.164z M50.179,9.84h2.04v1.292h0.034c0.227-0.476,0.55-0.844,0.969-1.105
	c0.419-0.26,0.901-0.391,1.445-0.391c0.125,0,0.244,0.012,0.357,0.034c0.125,0.023,0.25,0.051,0.374,0.085v1.972
	c-0.17-0.045-0.34-0.08-0.51-0.102c-0.158-0.034-0.317-0.051-0.476-0.051c-0.476,0-0.861,0.09-1.156,0.272
	c-0.283,0.169-0.504,0.369-0.663,0.595c-0.147,0.227-0.249,0.453-0.306,0.68c-0.045,0.227-0.068,0.396-0.068,0.51V18h-2.04V9.84z
	 M66.515,16.878h-0.051c-0.295,0.465-0.669,0.805-1.122,1.021c-0.453,0.203-0.952,0.306-1.496,0.306
	c-0.374,0-0.742-0.052-1.104-0.153c-0.352-0.102-0.669-0.255-0.952-0.459c-0.272-0.203-0.493-0.459-0.663-0.765
	s-0.255-0.663-0.255-1.071c0-0.441,0.079-0.816,0.238-1.122c0.158-0.317,0.368-0.577,0.628-0.782
	c0.272-0.215,0.584-0.385,0.936-0.51s0.714-0.215,1.088-0.271c0.385-0.068,0.771-0.107,1.156-0.119
	c0.385-0.023,0.748-0.034,1.088-0.034h0.51v-0.222c0-0.51-0.176-0.889-0.527-1.138c-0.352-0.261-0.799-0.391-1.342-0.391
	c-0.432,0-0.834,0.079-1.207,0.238c-0.375,0.147-0.697,0.352-0.97,0.612l-1.07-1.071c0.452-0.464,0.979-0.799,1.581-1.003
	c0.611-0.204,1.24-0.306,1.887-0.306c0.578,0,1.064,0.068,1.461,0.204c0.397,0.125,0.727,0.289,0.986,0.493
	c0.261,0.204,0.459,0.442,0.596,0.714c0.146,0.261,0.249,0.527,0.306,0.799c0.067,0.272,0.107,0.539,0.119,0.798
	c0.011,0.25,0.017,0.471,0.017,0.664V18h-1.836V16.878z M66.396,14.345h-0.425c-0.283,0-0.601,0.012-0.952,0.034
	c-0.352,0.023-0.686,0.08-1.003,0.17c-0.306,0.08-0.566,0.204-0.782,0.374c-0.215,0.159-0.322,0.386-0.322,0.681
	c0,0.192,0.039,0.356,0.119,0.492c0.09,0.125,0.203,0.232,0.34,0.323c0.136,0.091,0.289,0.159,0.459,0.204
	c0.17,0.034,0.34,0.051,0.51,0.051c0.703,0,1.219-0.164,1.547-0.492c0.34-0.341,0.51-0.8,0.51-1.377V14.345z M57.325,9.84h2.041V18
	h-2.041V9.84z M57.036,7.069c0-0.329,0.119-0.612,0.357-0.85c0.25-0.249,0.561-0.374,0.936-0.374c0.373,0,0.686,0.119,0.935,0.357
	c0.261,0.227,0.392,0.516,0.392,0.867c0,0.352-0.131,0.646-0.392,0.884c-0.249,0.227-0.562,0.34-0.935,0.34
	c-0.375,0-0.686-0.119-0.936-0.357C57.155,7.687,57.036,7.397,57.036,7.069z M70.334,9.84h1.938v1.309h0.034
	c0.192-0.408,0.487-0.759,0.884-1.054c0.396-0.306,0.936-0.459,1.615-0.459c0.544,0,1.003,0.091,1.377,0.272
	c0.385,0.181,0.697,0.419,0.936,0.714c0.237,0.294,0.408,0.635,0.51,1.02s0.152,0.788,0.152,1.208V18H75.74v-4.131
	c0-0.227-0.012-0.477-0.035-0.748c-0.021-0.283-0.084-0.544-0.187-0.782c-0.091-0.249-0.237-0.453-0.442-0.612
	c-0.203-0.17-0.48-0.255-0.832-0.255c-0.34,0-0.629,0.057-0.867,0.17c-0.227,0.113-0.42,0.266-0.578,0.459
	c-0.147,0.192-0.255,0.413-0.323,0.662c-0.067,0.25-0.103,0.51-0.103,0.782V18h-2.039V9.84z M80.283,5.964h7.768v1.938h-5.627v3.162
	h5.305v1.938h-5.305V18h-2.141V5.964z M89.891,5.148h2.041V18h-2.041V5.148z M94.324,9.84h2.039V18h-2.039V9.84z M94.035,7.069
	c0-0.329,0.119-0.612,0.356-0.85c0.249-0.249,0.562-0.374,0.935-0.374c0.375,0,0.687,0.119,0.936,0.357
	c0.261,0.227,0.391,0.516,0.391,0.867c0,0.352-0.13,0.646-0.391,0.884c-0.249,0.227-0.561,0.34-0.936,0.34
	c-0.373,0-0.686-0.119-0.935-0.357C94.154,7.687,94.035,7.397,94.035,7.069z M100.814,13.614L97.992,9.84h2.482l1.631,2.448
	l1.769-2.448h2.329l-2.788,3.774l3.28,4.386h-2.481l-2.125-2.924L99.947,18h-2.414L100.814,13.614z"/>
<path fill="#0095FF" d="M4.197,0C0.839,0,0,5.111,0,7.667v7.667C0,17.889,0.839,23,4.197,23h23.606C31.161,23,32,17.889,32,15.334
	V7.667C32,5.111,31.161,0,27.803,0H4.197z"/>
<path fill="#FFFFFF" d="M22.5,11.5L12,16.696V6.304L22.5,11.5z"/>
</svg>
